<?xml version="1.0" encoding="UTF-8" standalone="no"?>
<svg
   xmlns:dc="http://purl.org/dc/elements/1.1/"
   xmlns:cc="http://creativecommons.org/ns#"
   xmlns:rdf="http://www.w3.org/1999/02/22-rdf-syntax-ns#"
   xmlns:svg="http://www.w3.org/2000/svg"
   xmlns="http://www.w3.org/2000/svg"
   xmlns:sodipodi="http://sodipodi.sourceforge.net/DTD/sodipodi-0.dtd"
   xmlns:inkscape="http://www.inkscape.org/namespaces/inkscape"
   inkscape:version="1.0 (4035a4fb49, 2020-05-01)"
   sodipodi:docname="adjustments_icon.svg"
   id="svg8"
   version="1.1"
   viewBox="0 0 210 210"
   height="210mm"
   width="210mm">
  <defs
     id="defs2">
    <pattern
       id="EMFhbasepattern"
       patternUnits="userSpaceOnUse"
       width="6"
       height="6"
       x="0"
       y="0" />
    <pattern
       id="EMFhbasepattern-3"
       patternUnits="userSpaceOnUse"
       width="6"
       height="6"
       x="0"
       y="0" />
    <pattern
       id="EMFhbasepattern-7"
       patternUnits="userSpaceOnUse"
       width="6"
       height="6"
       x="0"
       y="0" />
    <pattern
       id="EMFhbasepattern-6"
       patternUnits="userSpaceOnUse"
       width="6"
       height="6"
       x="0"
       y="0" />
    <pattern
       id="EMFhbasepattern-62"
       patternUnits="userSpaceOnUse"
       width="6"
       height="6"
       x="0"
       y="0" />
    <pattern
       id="EMFhbasepattern-4"
       patternUnits="userSpaceOnUse"
       width="6"
       height="6"
       x="0"
       y="0" />
    <pattern
       id="EMFhbasepattern-45"
       patternUnits="userSpaceOnUse"
       width="6"
       height="6"
       x="0"
       y="0" />
    <pattern
       id="EMFhbasepattern-64"
       patternUnits="userSpaceOnUse"
       width="6"
       height="6"
       x="0"
       y="0" />
    <pattern
       id="EMFhbasepattern-5"
       patternUnits="userSpaceOnUse"
       width="6"
       height="6"
       x="0"
       y="0" />
  </defs>
  <sodipodi:namedview
     inkscape:snap-object-midpoints="true"
     inkscape:window-maximized="1"
     inkscape:window-y="-8"
     inkscape:window-x="-8"
     inkscape:window-height="1057"
     inkscape:window-width="1920"
     showgrid="false"
     inkscape:document-rotation="0"
     inkscape:current-layer="layer1"
     inkscape:document-units="mm"
     inkscape:cy="452.97784"
     inkscape:cx="281.68563"
     inkscape:zoom="0.7"
     inkscape:pageshadow="2"
     inkscape:pageopacity="0.0"
     borderopacity="1.0"
     bordercolor="#666666"
     pagecolor="#ffffff"
     id="base" />
  <metadata
     id="metadata5">
    <rdf:RDF>
      <cc:Work
         rdf:about="">
        <dc:format>image/svg+xml</dc:format>
        <dc:type
           rdf:resource="http://purl.org/dc/dcmitype/StillImage" />
        <dc:title></dc:title>
      </cc:Work>
    </rdf:RDF>
  </metadata>
  <g
     id="layer1"
     inkscape:groupmode="layer"
     inkscape:label="Layer 1">
    <path
       style="fill:#ffffff;fill-opacity:1;fill-rule:nonzero;stroke:none;stroke-width:0.151839"
       d="M 4.7192076,40.058755 H 19.769787 c 1.101262,-6.042916 4.032225,-11.453968 8.196371,-15.62427 5.362917,-5.370842 12.767755,-8.691 20.94692,-8.691 8.179164,0 15.584002,3.320158 20.946916,8.691 4.164151,4.170302 7.095111,9.581354 8.196373,15.62427 H 205.28079 V 50.760231 H 78.056367 c -1.101262,6.048661 -4.032222,11.453968 -8.196373,15.630014 -5.362914,5.365098 -12.767752,8.685254 -20.946916,8.685254 -8.179165,0 -15.584003,-3.320156 -20.94692,-8.685254 -4.164146,-4.176046 -7.095109,-9.581353 -8.196371,-15.630014 H 4.7192076 Z M 93.588747,134.9245 c 8.179173,0 15.584003,3.32016 20.946923,8.691 4.16414,4.1703 7.09511,9.58135 8.19637,15.62427 h 82.54875 v 10.70147 h -82.54875 c -1.10126,6.04866 -4.03223,11.45397 -8.19637,15.63002 -5.36292,5.36509 -12.76775,8.68526 -20.946923,8.68526 -8.179162,0 -15.584,-3.32017 -20.946915,-8.68526 -4.164151,-4.17605 -7.09511,-9.58136 -8.196372,-15.63002 H 4.7192076 V 159.23977 H 64.44546 c 1.101262,-6.04292 4.032221,-11.45397 8.196372,-15.62427 5.362915,-5.37084 12.767753,-8.691 20.946915,-8.691 z m 13.392953,16.25613 c -3.42424,-3.43504 -8.161955,-5.55466 -13.392953,-5.55466 -5.230991,0 -9.962978,2.11962 -13.392948,5.55466 -3.424238,3.4293 -5.546459,8.17402 -5.546459,13.41275 0,5.23873 2.122221,9.9777 5.546459,13.41275 3.42997,3.42929 8.161957,5.55465 13.392948,5.55465 5.230998,0 9.968713,-2.12536 13.392953,-5.55465 3.42997,-3.43505 5.54646,-8.17402 5.54646,-13.41275 0,-5.23873 -2.11649,-9.98345 -5.54646,-13.41275 z m 61.87716,-75.766221 c 8.1849,0 15.58973,3.320159 20.94692,8.690999 4.16987,4.170303 7.09511,9.581355 8.19636,15.62427 h 7.27865 v 10.701482 h -7.27865 c -1.10125,6.04866 -4.02649,11.45397 -8.19636,15.63002 -5.35719,5.36509 -12.76202,8.68525 -20.94692,8.68525 -8.17917,0 -15.58401,-3.32016 -20.94119,-8.68525 -4.16988,-4.17605 -7.10085,-9.58136 -8.19637,-15.63002 H 4.7192076 V 99.729678 H 139.7213 c 1.09552,-6.042915 4.02649,-11.453967 8.19637,-15.62427 5.35718,-5.37084 12.76202,-8.690999 20.94119,-8.690999 z m 13.39294,16.256134 c -3.42424,-3.435044 -8.16195,-5.55466 -13.39294,-5.55466 -5.22527,0 -9.96299,2.119616 -13.38722,5.55466 -3.42997,3.429299 -5.5522,8.17402 -5.5522,13.412747 0,5.23873 2.12223,9.97771 5.5522,13.41275 3.42423,3.42929 8.16195,5.55465 13.38722,5.55465 5.23099,0 9.9687,-2.12536 13.39294,-5.55465 3.42998,-3.43504 5.54645,-8.17402 5.54645,-13.41275 0,-5.238727 -2.11647,-9.983448 -5.54645,-13.412747 z M 62.306028,31.999619 c -3.429972,-3.435042 -8.161956,-5.554658 -13.39295,-5.554658 -5.230995,0 -9.968715,2.119616 -13.392951,5.554658 -3.429972,3.429297 -5.54646,8.17402 -5.54646,13.412747 0,5.238726 2.116488,9.977703 5.54646,13.412746 3.424236,3.429297 8.161956,5.554657 13.392951,5.554657 5.230994,0 9.962978,-2.12536 13.39295,-5.554657 3.424237,-3.435043 5.546458,-8.17402 5.546458,-13.412746 0,-5.238727 -2.122221,-9.98345 -5.546458,-13.412747 z"
       id="path1559" />
  </g>
</svg>
