<?xml version="1.0" encoding="UTF-8" standalone="no"?>
<svg
   xmlns:dc="http://purl.org/dc/elements/1.1/"
   xmlns:cc="http://creativecommons.org/ns#"
   xmlns:rdf="http://www.w3.org/1999/02/22-rdf-syntax-ns#"
   xmlns:svg="http://www.w3.org/2000/svg"
   xmlns="http://www.w3.org/2000/svg"
   xmlns:sodipodi="http://sodipodi.sourceforge.net/DTD/sodipodi-0.dtd"
   xmlns:inkscape="http://www.inkscape.org/namespaces/inkscape"
   inkscape:version="1.0 (4035a4fb49, 2020-05-01)"
   sodipodi:docname="cart_icon.svg"
   id="svg8"
   version="1.1"
   viewBox="0 0 210 210"
   height="210mm"
   width="210mm">
  <defs
     id="defs2">
    <pattern
       id="EMFhbasepattern"
       patternUnits="userSpaceOnUse"
       width="6"
       height="6"
       x="0"
       y="0" />
    <pattern
       id="EMFhbasepattern-3"
       patternUnits="userSpaceOnUse"
       width="6"
       height="6"
       x="0"
       y="0" />
    <pattern
       id="EMFhbasepattern-7"
       patternUnits="userSpaceOnUse"
       width="6"
       height="6"
       x="0"
       y="0" />
    <pattern
       id="EMFhbasepattern-6"
       patternUnits="userSpaceOnUse"
       width="6"
       height="6"
       x="0"
       y="0" />
    <pattern
       id="EMFhbasepattern-62"
       patternUnits="userSpaceOnUse"
       width="6"
       height="6"
       x="0"
       y="0" />
    <pattern
       id="EMFhbasepattern-4"
       patternUnits="userSpaceOnUse"
       width="6"
       height="6"
       x="0"
       y="0" />
    <pattern
       id="EMFhbasepattern-45"
       patternUnits="userSpaceOnUse"
       width="6"
       height="6"
       x="0"
       y="0" />
    <pattern
       id="EMFhbasepattern-64"
       patternUnits="userSpaceOnUse"
       width="6"
       height="6"
       x="0"
       y="0" />
    <pattern
       id="EMFhbasepattern-5"
       patternUnits="userSpaceOnUse"
       width="6"
       height="6"
       x="0"
       y="0" />
    <pattern
       id="EMFhbasepattern-622"
       patternUnits="userSpaceOnUse"
       width="6"
       height="6"
       x="0"
       y="0" />
    <pattern
       id="EMFhbasepattern-74"
       patternUnits="userSpaceOnUse"
       width="6"
       height="6"
       x="0"
       y="0" />
    <pattern
       id="EMFhbasepattern-48"
       patternUnits="userSpaceOnUse"
       width="6"
       height="6"
       x="0"
       y="0" />
    <pattern
       id="EMFhbasepattern-1"
       patternUnits="userSpaceOnUse"
       width="6"
       height="6"
       x="0"
       y="0" />
    <pattern
       id="EMFhbasepattern-648"
       patternUnits="userSpaceOnUse"
       width="6"
       height="6"
       x="0"
       y="0" />
  </defs>
  <sodipodi:namedview
     inkscape:snap-object-midpoints="true"
     inkscape:window-maximized="1"
     inkscape:window-y="-8"
     inkscape:window-x="-8"
     inkscape:window-height="1057"
     inkscape:window-width="1920"
     showgrid="false"
     inkscape:document-rotation="0"
     inkscape:current-layer="layer1"
     inkscape:document-units="mm"
     inkscape:cy="510.1207"
     inkscape:cx="281.68563"
     inkscape:zoom="0.7"
     inkscape:pageshadow="2"
     inkscape:pageopacity="0.0"
     borderopacity="1.0"
     bordercolor="#666666"
     pagecolor="#ffffff"
     id="base" />
  <metadata
     id="metadata5">
    <rdf:RDF>
      <cc:Work
         rdf:about="">
        <dc:format>image/svg+xml</dc:format>
        <dc:type
           rdf:resource="http://purl.org/dc/dcmitype/StillImage" />
        <dc:title></dc:title>
      </cc:Work>
    </rdf:RDF>
  </metadata>
  <g
     id="layer1"
     inkscape:groupmode="layer"
     inkscape:label="Layer 1">
    <path
       style="fill:#ffffff;fill-opacity:1;fill-rule:nonzero;stroke:none;stroke-width:0.138661"
       d="m 37.061307,71.466979 h 15.860482 c 5.761731,0 10.475878,4.721112 10.475878,10.491362 v 7.443622 c 0,5.770248 -4.714147,10.491365 -10.475878,10.491365 H 37.061307 c -5.761734,0 -10.475879,-4.721117 -10.475879,-10.491365 v -7.443622 c 0,-5.77025 4.714145,-10.491362 10.475879,-10.491362 z M 24.034551,39.935185 H 185.96545 c 5.66746,0 10.81635,2.318591 14.54577,6.053519 3.72941,3.734922 6.04457,8.891428 6.04457,14.567258 v 88.888068 c 0,5.67583 -2.31516,10.83234 -6.04457,14.56726 -3.72942,3.73493 -8.87831,6.05352 -14.54577,6.05352 H 24.034551 c -5.66745,0 -10.816346,-2.31859 -14.5457584,-6.05352 -3.7294135,-3.73492 -6.0445831,-8.89143 -6.0445831,-14.56726 V 60.555962 c 0,-5.67583 2.3151696,-10.832336 6.0445831,-14.567258 3.7294124,-3.734928 8.8783084,-6.053519 14.5457584,-6.053519 z M 185.96545,49.707894 H 24.034551 c -2.969912,0 -5.677926,1.222241 -7.647392,3.189373 -1.964227,1.972378 -3.184667,4.684395 -3.184667,7.658695 v 88.888068 c 0,2.97955 1.22044,5.69157 3.184667,7.6587 1.969466,1.97238 4.67748,3.19462 7.647392,3.19462 H 185.96545 c 2.97514,0 5.68316,-1.22224 7.64739,-3.19462 1.96947,-1.96713 3.18991,-4.67915 3.18991,-7.6587 V 60.555962 c 0,-2.9743 -1.22044,-5.686317 -3.18991,-7.658695 -1.96423,-1.967132 -4.67225,-3.189373 -7.64739,-3.189373 z"
       id="path1624" />
  </g>
</svg>
