<?xml version="1.0" encoding="UTF-8" standalone="no"?>
<svg
   xmlns:dc="http://purl.org/dc/elements/1.1/"
   xmlns:cc="http://creativecommons.org/ns#"
   xmlns:rdf="http://www.w3.org/1999/02/22-rdf-syntax-ns#"
   xmlns:svg="http://www.w3.org/2000/svg"
   xmlns="http://www.w3.org/2000/svg"
   xmlns:sodipodi="http://sodipodi.sourceforge.net/DTD/sodipodi-0.dtd"
   xmlns:inkscape="http://www.inkscape.org/namespaces/inkscape"
   inkscape:version="1.0 (4035a4fb49, 2020-05-01)"
   sodipodi:docname="codebar_icon.svg"
   id="svg8"
   version="1.1"
   viewBox="0 0 210 210"
   height="210mm"
   width="210mm">
  <defs
     id="defs2">
    <pattern
       id="EMFhbasepattern"
       patternUnits="userSpaceOnUse"
       width="6"
       height="6"
       x="0"
       y="0" />
  </defs>
  <sodipodi:namedview
     inkscape:snap-object-midpoints="true"
     inkscape:window-maximized="1"
     inkscape:window-y="-8"
     inkscape:window-x="-8"
     inkscape:window-height="1057"
     inkscape:window-width="1920"
     showgrid="false"
     inkscape:document-rotation="0"
     inkscape:current-layer="layer1"
     inkscape:document-units="mm"
     inkscape:cy="557.26355"
     inkscape:cx="233.1142"
     inkscape:zoom="0.7"
     inkscape:pageshadow="2"
     inkscape:pageopacity="0.0"
     borderopacity="1.0"
     bordercolor="#666666"
     pagecolor="#ffffff"
     id="base" />
  <metadata
     id="metadata5">
    <rdf:RDF>
      <cc:Work
         rdf:about="">
        <dc:format>image/svg+xml</dc:format>
        <dc:type
           rdf:resource="http://purl.org/dc/dcmitype/StillImage" />
        <dc:title></dc:title>
      </cc:Work>
    </rdf:RDF>
  </metadata>
  <g
     id="layer1"
     inkscape:groupmode="layer"
     inkscape:label="Layer 1">
    <path
       transform="scale(0.26458333)"
       d="M 741.83594 160.40625 L 741.83594 624.72461 L 776.77148 624.72461 L 776.77148 160.40625 L 741.83594 160.40625 z M 379.46094 163.26172 L 379.46094 557.52344 L 414.39844 557.52344 L 414.39844 163.26172 L 379.46094 163.26172 z M 14.230469 164.69141 L 14.230469 629.00977 L 49.167969 629.00977 L 49.167969 164.69141 L 14.230469 164.69141 z M 72.996094 164.69141 L 72.996094 558.95117 L 107.93359 558.95117 L 107.93359 164.69141 L 72.996094 164.69141 z M 143.17773 164.69141 L 143.17773 558.95117 L 178.11328 558.95117 L 178.11328 164.69141 L 143.17773 164.69141 z M 218.9043 164.69141 L 218.9043 558.95117 L 268.49023 558.95117 L 268.49023 164.69141 L 218.9043 164.69141 z M 310.69531 164.69141 L 310.69531 558.95117 L 345.64648 558.95117 L 345.64648 164.69141 L 310.69531 164.69141 z M 525.55078 164.69141 L 525.55078 558.95117 L 560.48828 558.95117 L 560.48828 164.69141 L 525.55078 164.69141 z M 592.88867 164.69141 L 592.88867 558.95117 L 627.82617 558.95117 L 627.82617 164.69141 L 592.88867 164.69141 z M 661.45898 164.69141 L 661.45898 558.95117 L 711.04492 558.95117 L 711.04492 164.69141 L 661.45898 164.69141 z M 449.65625 166.11914 L 449.65625 560.37891 L 484.59375 560.37891 L 484.59375 166.11914 L 449.65625 166.11914 z "
       style="fill:#ffffff;fill-opacity:1;fill-rule:evenodd;stroke:none;stroke-width:0.415812"
       id="path1448" />
  </g>
</svg>
