<?xml version="1.0" encoding="UTF-8" standalone="no"?>
<svg
   xmlns:dc="http://purl.org/dc/elements/1.1/"
   xmlns:cc="http://creativecommons.org/ns#"
   xmlns:rdf="http://www.w3.org/1999/02/22-rdf-syntax-ns#"
   xmlns:svg="http://www.w3.org/2000/svg"
   xmlns="http://www.w3.org/2000/svg"
   xmlns:sodipodi="http://sodipodi.sourceforge.net/DTD/sodipodi-0.dtd"
   xmlns:inkscape="http://www.inkscape.org/namespaces/inkscape"
   inkscape:version="1.0 (4035a4fb49, 2020-05-01)"
   sodipodi:docname="emprestimos_icon.svg"
   id="svg8"
   version="1.1"
   viewBox="0 0 210 210"
   height="210mm"
   width="210mm">
  <defs
     id="defs2">
    <pattern
       id="EMFhbasepattern"
       patternUnits="userSpaceOnUse"
       width="6"
       height="6"
       x="0"
       y="0" />
    <pattern
       id="EMFhbasepattern-3"
       patternUnits="userSpaceOnUse"
       width="6"
       height="6"
       x="0"
       y="0" />
    <pattern
       id="EMFhbasepattern-7"
       patternUnits="userSpaceOnUse"
       width="6"
       height="6"
       x="0"
       y="0" />
    <pattern
       id="EMFhbasepattern-6"
       patternUnits="userSpaceOnUse"
       width="6"
       height="6"
       x="0"
       y="0" />
    <pattern
       id="EMFhbasepattern-62"
       patternUnits="userSpaceOnUse"
       width="6"
       height="6"
       x="0"
       y="0" />
    <pattern
       id="EMFhbasepattern-4"
       patternUnits="userSpaceOnUse"
       width="6"
       height="6"
       x="0"
       y="0" />
  </defs>
  <sodipodi:namedview
     inkscape:snap-object-midpoints="true"
     inkscape:window-maximized="1"
     inkscape:window-y="-8"
     inkscape:window-x="-8"
     inkscape:window-height="1057"
     inkscape:window-width="1920"
     showgrid="false"
     inkscape:document-rotation="0"
     inkscape:current-layer="layer1"
     inkscape:document-units="mm"
     inkscape:cy="557.26355"
     inkscape:cx="233.1142"
     inkscape:zoom="0.7"
     inkscape:pageshadow="2"
     inkscape:pageopacity="0.0"
     borderopacity="1.0"
     bordercolor="#666666"
     pagecolor="#ffffff"
     id="base" />
  <metadata
     id="metadata5">
    <rdf:RDF>
      <cc:Work
         rdf:about="">
        <dc:format>image/svg+xml</dc:format>
        <dc:type
           rdf:resource="http://purl.org/dc/dcmitype/StillImage" />
        <dc:title></dc:title>
      </cc:Work>
    </rdf:RDF>
  </metadata>
  <g
     id="layer1"
     inkscape:groupmode="layer"
     inkscape:label="Layer 1">
    <path
       style="fill:#ffffff;fill-opacity:1;fill-rule:nonzero;stroke:none;stroke-width:0.133424"
       d="m 14.033835,132.14307 v 41.05203 c 7.988616,-0.86818 22.907421,-2.29665 28.879985,-1.65561 21.985079,2.37236 39.670917,20.01369 62.13481,20.92224 12.41386,0.50476 26.67744,-4.56805 40.09429,-11.60944 21.63227,-11.35202 40.73942,-27.64058 47.02448,-34.50026 2.57046,-2.81151 3.94643,-6.51643 3.82042,-9.87308 -0.126,-3.39198 -1.77916,-5.92081 -5.22158,-6.93033 -4.13292,-1.20638 -10.57421,-0.42905 -19.84806,3.7655 -8.76984,3.9674 -16.42581,7.9449 -23.3812,11.55897 -19.63637,10.20117 -33.98564,17.66151 -51.701724,14.31496 -4.541162,-0.85304 -8.527911,-1.69095 -12.015685,-2.48342 -0.836663,-0.15647 -1.527161,-0.31799 -2.031175,-0.47447 -12.459217,-2.93769 -17.700962,-5.14853 -17.721123,-5.15863 l 3.044242,-8.84843 c 0.0353,0.005 12.262658,3.42228 17.317914,5.00217 0.619939,0.14638 1.265072,0.29276 1.925333,0.43914 3.684342,0.65114 10.730452,1.1559 16.617328,-0.0555 2.28823,-0.46943 5.94233,-1.5698 6.61771,-3.75035 0.2016,-0.63095 0.21672,-1.43857 0.0101,-2.44809 -1.17939,-5.729 -6.83947,-10.78669 -14.535756,-14.7339 -9.621623,-4.93149 -22.131242,-7.92976 -33.516913,-8.41938 -16.067957,-0.69151 -39.771722,10.11537 -47.513371,13.88591 z m -9.3897762,46.31161 v -52.06081 l 2.5503095,-1.31742 c 0.03528,-0.0202 5.1913417,-2.71055 12.7666657,-5.89053 C 14.149757,100.12119 15.172905,79.501798 22.738151,61.214393 35.978591,29.2026 67.187122,8.1289261 102.05983,8.1289261 c 47.38736,0 85.81841,38.4878479 85.81841,85.9503019 0,8.964512 -1.37091,17.616082 -3.92123,25.747732 7.36868,-0.69151 14.23336,1.166 18.30578,6.86977 1.95558,2.74589 2.95353,6.02682 3.07953,9.45413 0.21168,5.69368 -2.05133,11.89212 -6.28505,16.5157 -6.68827,7.3089 -26.90426,24.58175 -49.58992,36.48901 -14.68695,7.70766 -30.5281,13.24992 -44.78665,12.67449 -25.024281,-1.01961 -43.042774,-18.8376 -62.759787,-20.96262 -7.207396,-0.77734 -31.9595095,2.24617 -32.0300711,2.25121 l -5.2467831,0.636 z M 29.335691,115.51633 c 10.362522,-3.74026 22.594933,-7.05148 32.574406,-6.62243 15.674824,0.67132 35.679132,5.92081 47.558733,16.13208 5.14598,-2.48846 8.82024,-7.36948 8.82024,-13.24991 0,-4.37122 -2.48983,-7.71272 -6.33041,-9.78223 -2.01102,-1.08523 -3.57346,-1.49913 -5.87176,-2.094743 v -0.005 L 94.358498,96.804931 C 86.626927,94.770754 80.356997,89.808976 77.715968,82.318357 75.961996,77.341435 76.113205,71.662901 77.796608,66.857601 80.669485,58.675461 87.902084,53.461306 96.188067,51.78046 l 0.478815,-0.0959 V 38.056066 h 11.990488 v 13.835436 c 2.73175,0.64609 4.98973,1.423419 7.49468,2.786268 6.16409,3.361692 10.48853,8.792894 12.59027,15.586945 l 0.3528,1.130659 -9.5561,3.750358 c -0.8921,-2.372368 -1.49188,-3.896735 -2.9384,-5.956151 -3.37689,-4.805305 -8.70935,-7.692523 -14.49039,-7.692523 -5.48367,0 -10.901818,2.715601 -13.089236,7.919662 -1.154194,2.735793 -1.365877,6.223677 -0.337692,9.176513 1.391081,3.972454 4.68229,6.632529 8.779922,7.697572 l 14.379506,3.740262 h 0.005 c 2.83255,0.726851 5.33246,1.761607 7.49468,3.033597 6.70842,3.952262 10.60949,10.529266 10.60949,18.272256 0,9.63585 -5.1611,17.57065 -13.48741,22.04281 2.52511,4.57816 3.66418,10.11032 1.48684,14.79448 7.69629,-2.4935 15.82603,-6.71834 25.29646,-11.63973 7.10658,-3.68979 14.92383,-7.75309 23.81967,-11.77602 1.81445,-0.82276 3.56338,-1.53447 5.24174,-2.14522 7.45436,-18.38836 7.37877,-39.234893 -0.2016,-57.562682 -7.67613,-18.559974 -22.53445,-33.435212 -41.06199,-41.122686 -18.47714,-7.662237 -39.499556,-7.662237 -57.976702,0 -18.527543,7.687474 -33.385866,22.562712 -41.061995,41.122686 -6.567298,15.884756 -7.550125,33.833975 -2.671272,50.465772 z"
       id="path1520" />
  </g>
</svg>
