<?xml version="1.0" encoding="UTF-8" standalone="no"?>
<svg
   xmlns:dc="http://purl.org/dc/elements/1.1/"
   xmlns:cc="http://creativecommons.org/ns#"
   xmlns:rdf="http://www.w3.org/1999/02/22-rdf-syntax-ns#"
   xmlns:svg="http://www.w3.org/2000/svg"
   xmlns="http://www.w3.org/2000/svg"
   xmlns:sodipodi="http://sodipodi.sourceforge.net/DTD/sodipodi-0.dtd"
   xmlns:inkscape="http://www.inkscape.org/namespaces/inkscape"
   inkscape:version="1.0 (4035a4fb49, 2020-05-01)"
   sodipodi:docname="eye_close_icon.svg"
   id="svg8"
   version="1.1"
   viewBox="0 0 210 210"
   height="210mm"
   width="210mm">
  <defs
     id="defs2">
    <pattern
       id="EMFhbasepattern"
       patternUnits="userSpaceOnUse"
       width="6"
       height="6"
       x="0"
       y="0" />
    <pattern
       id="EMFhbasepattern-3"
       patternUnits="userSpaceOnUse"
       width="6"
       height="6"
       x="0"
       y="0" />
    <pattern
       id="EMFhbasepattern-7"
       patternUnits="userSpaceOnUse"
       width="6"
       height="6"
       x="0"
       y="0" />
    <pattern
       id="EMFhbasepattern-6"
       patternUnits="userSpaceOnUse"
       width="6"
       height="6"
       x="0"
       y="0" />
    <pattern
       id="EMFhbasepattern-62"
       patternUnits="userSpaceOnUse"
       width="6"
       height="6"
       x="0"
       y="0" />
    <pattern
       id="EMFhbasepattern-4"
       patternUnits="userSpaceOnUse"
       width="6"
       height="6"
       x="0"
       y="0" />
    <pattern
       id="EMFhbasepattern-45"
       patternUnits="userSpaceOnUse"
       width="6"
       height="6"
       x="0"
       y="0" />
    <pattern
       id="EMFhbasepattern-64"
       patternUnits="userSpaceOnUse"
       width="6"
       height="6"
       x="0"
       y="0" />
    <pattern
       id="EMFhbasepattern-5"
       patternUnits="userSpaceOnUse"
       width="6"
       height="6"
       x="0"
       y="0" />
    <pattern
       id="EMFhbasepattern-622"
       patternUnits="userSpaceOnUse"
       width="6"
       height="6"
       x="0"
       y="0" />
    <pattern
       id="EMFhbasepattern-74"
       patternUnits="userSpaceOnUse"
       width="6"
       height="6"
       x="0"
       y="0" />
    <pattern
       id="EMFhbasepattern-48"
       patternUnits="userSpaceOnUse"
       width="6"
       height="6"
       x="0"
       y="0" />
    <pattern
       id="EMFhbasepattern-1"
       patternUnits="userSpaceOnUse"
       width="6"
       height="6"
       x="0"
       y="0" />
    <pattern
       id="EMFhbasepattern-648"
       patternUnits="userSpaceOnUse"
       width="6"
       height="6"
       x="0"
       y="0" />
    <pattern
       id="EMFhbasepattern-18"
       patternUnits="userSpaceOnUse"
       width="6"
       height="6"
       x="0"
       y="0" />
    <pattern
       id="EMFhbasepattern-37"
       patternUnits="userSpaceOnUse"
       width="6"
       height="6"
       x="0"
       y="0" />
  </defs>
  <sodipodi:namedview
     inkscape:snap-object-midpoints="true"
     inkscape:window-maximized="1"
     inkscape:window-y="-8"
     inkscape:window-x="-8"
     inkscape:window-height="1057"
     inkscape:window-width="1920"
     showgrid="false"
     inkscape:document-rotation="0"
     inkscape:current-layer="layer1"
     inkscape:document-units="mm"
     inkscape:cy="510.1207"
     inkscape:cx="281.68563"
     inkscape:zoom="0.7"
     inkscape:pageshadow="2"
     inkscape:pageopacity="0.0"
     borderopacity="1.0"
     bordercolor="#666666"
     pagecolor="#ffffff"
     id="base" />
  <metadata
     id="metadata5">
    <rdf:RDF>
      <cc:Work
         rdf:about="">
        <dc:format>image/svg+xml</dc:format>
        <dc:type
           rdf:resource="http://purl.org/dc/dcmitype/StillImage" />
        <dc:title></dc:title>
      </cc:Work>
    </rdf:RDF>
  </metadata>
  <g
     id="layer1"
     inkscape:groupmode="layer"
     inkscape:label="Layer 1">
    <path
       style="fill:#ffffff;fill-opacity:1;fill-rule:nonzero;stroke:none;stroke-width:0.139184"
       d="m 3.894428,105 c 0.099896,-0.19483 34.437935,-67.508604 101.105562,-67.508604 14.94765,0 28.2654,3.390963 39.94276,8.640638 l -7.61316,7.38219 c -9.64788,-3.833263 -20.43142,-6.213256 -32.3296,-6.213256 -50.778859,0 -81.226198,43.392744 -89.88563,57.699032 4.568941,7.54542 15.194752,23.17334 31.656611,36.26329 l -7.029545,6.81352 C 16.034457,128.79992 3.9522629,105.11584 3.894428,105 Z m 28.034055,64.00707 139.334307,-135.022478 6.80872,7.013607 -15.58382,15.096105 c 28.83322,19.94034 43.54952,48.779326 43.61788,48.905696 -0.0999,0.19482 -34.43794,67.51386 -101.10558,67.51386 -18.959261,0 -35.300188,-5.44449 -48.980725,-13.24265 l -17.28206,16.7442 z M 155.35298,63.007868 140.40535,77.498444 c 5.89388,7.598075 9.40076,17.139107 9.40076,27.501556 0,12.38965 -5.01584,23.61037 -13.12321,31.72973 -8.10738,8.11935 -19.31154,13.14261 -31.68291,13.14261 -10.878172,0 -20.852029,-3.88065 -28.612395,-10.34138 l -13.044354,12.64239 c 11.866629,6.28171 25.762731,10.53094 41.656749,10.53094 50.77887,0 81.22622,-43.39801 89.88564,-57.70429 -5.2577,-8.682762 -18.5439,-28.080757 -39.53265,-41.992132 z M 133.31271,84.369884 83.480231,132.65952 c 5.935942,4.64414 13.407134,7.40852 21.519759,7.40852 9.66891,0 18.42299,-3.92805 24.75851,-10.27294 6.33553,-6.34489 10.25252,-15.1119 10.25252,-24.7951 0,-7.70865 -2.48164,-14.843363 -6.69831,-20.630116 z M 104.99999,60.127655 c 7.35553,0 14.29569,1.774465 20.42091,4.923215 l -7.56057,7.32427 c -3.98008,-1.574374 -8.31768,-2.437912 -12.86034,-2.437912 -9.6689,0 -18.422975,3.922776 -24.758504,10.267668 C 73.905962,86.549789 69.988971,95.316797 69.988971,105 c 0,4.14392 0.715048,8.11409 2.029473,11.79992 l -7.560573,7.32953 c -2.734,-5.80254 -4.263994,-12.28434 -4.263994,-19.12945 0,-12.389654 5.015845,-23.605108 13.12322,-31.729728 8.107374,-8.119357 19.311534,-13.142617 31.682893,-13.142617 z"
       id="path1650" />
  </g>
</svg>
