<?xml version="1.0" encoding="UTF-8" standalone="no"?>
<svg
   xmlns:dc="http://purl.org/dc/elements/1.1/"
   xmlns:cc="http://creativecommons.org/ns#"
   xmlns:rdf="http://www.w3.org/1999/02/22-rdf-syntax-ns#"
   xmlns:svg="http://www.w3.org/2000/svg"
   xmlns="http://www.w3.org/2000/svg"
   xmlns:sodipodi="http://sodipodi.sourceforge.net/DTD/sodipodi-0.dtd"
   xmlns:inkscape="http://www.inkscape.org/namespaces/inkscape"
   inkscape:version="1.0 (4035a4fb49, 2020-05-01)"
   sodipodi:docname="home_PJ_icon.svg"
   id="svg8"
   version="1.1"
   viewBox="0 0 210 210"
   height="210mm"
   width="210mm">
  <defs
     id="defs2">
    <pattern
       id="EMFhbasepattern"
       patternUnits="userSpaceOnUse"
       width="6"
       height="6"
       x="0"
       y="0" />
    <pattern
       id="EMFhbasepattern-3"
       patternUnits="userSpaceOnUse"
       width="6"
       height="6"
       x="0"
       y="0" />
    <pattern
       id="EMFhbasepattern-7"
       patternUnits="userSpaceOnUse"
       width="6"
       height="6"
       x="0"
       y="0" />
    <pattern
       id="EMFhbasepattern-6"
       patternUnits="userSpaceOnUse"
       width="6"
       height="6"
       x="0"
       y="0" />
    <pattern
       id="EMFhbasepattern-62"
       patternUnits="userSpaceOnUse"
       width="6"
       height="6"
       x="0"
       y="0" />
    <pattern
       id="EMFhbasepattern-4"
       patternUnits="userSpaceOnUse"
       width="6"
       height="6"
       x="0"
       y="0" />
    <pattern
       id="EMFhbasepattern-45"
       patternUnits="userSpaceOnUse"
       width="6"
       height="6"
       x="0"
       y="0" />
    <pattern
       id="EMFhbasepattern-64"
       patternUnits="userSpaceOnUse"
       width="6"
       height="6"
       x="0"
       y="0" />
    <pattern
       id="EMFhbasepattern-5"
       patternUnits="userSpaceOnUse"
       width="6"
       height="6"
       x="0"
       y="0" />
    <pattern
       id="EMFhbasepattern-622"
       patternUnits="userSpaceOnUse"
       width="6"
       height="6"
       x="0"
       y="0" />
    <pattern
       id="EMFhbasepattern-74"
       patternUnits="userSpaceOnUse"
       width="6"
       height="6"
       x="0"
       y="0" />
    <pattern
       id="EMFhbasepattern-48"
       patternUnits="userSpaceOnUse"
       width="6"
       height="6"
       x="0"
       y="0" />
    <pattern
       id="EMFhbasepattern-1"
       patternUnits="userSpaceOnUse"
       width="6"
       height="6"
       x="0"
       y="0" />
    <pattern
       id="EMFhbasepattern-648"
       patternUnits="userSpaceOnUse"
       width="6"
       height="6"
       x="0"
       y="0" />
    <pattern
       id="EMFhbasepattern-18"
       patternUnits="userSpaceOnUse"
       width="6"
       height="6"
       x="0"
       y="0" />
    <pattern
       id="EMFhbasepattern-37"
       patternUnits="userSpaceOnUse"
       width="6"
       height="6"
       x="0"
       y="0" />
    <pattern
       id="EMFhbasepattern-35"
       patternUnits="userSpaceOnUse"
       width="6"
       height="6"
       x="0"
       y="0" />
    <pattern
       id="EMFhbasepattern-0"
       patternUnits="userSpaceOnUse"
       width="6"
       height="6"
       x="0"
       y="0" />
    <pattern
       id="EMFhbasepattern-77"
       patternUnits="userSpaceOnUse"
       width="6"
       height="6"
       x="0"
       y="0" />
    <pattern
       id="EMFhbasepattern-69"
       patternUnits="userSpaceOnUse"
       width="6"
       height="6"
       x="0"
       y="0" />
    <pattern
       id="EMFhbasepattern-71"
       patternUnits="userSpaceOnUse"
       width="6"
       height="6"
       x="0"
       y="0" />
  </defs>
  <sodipodi:namedview
     inkscape:snap-object-midpoints="true"
     inkscape:window-maximized="1"
     inkscape:window-y="-8"
     inkscape:window-x="-8"
     inkscape:window-height="1057"
     inkscape:window-width="1920"
     showgrid="false"
     inkscape:document-rotation="0"
     inkscape:current-layer="layer1"
     inkscape:document-units="mm"
     inkscape:cy="510.1207"
     inkscape:cx="281.68563"
     inkscape:zoom="0.7"
     inkscape:pageshadow="2"
     inkscape:pageopacity="0.0"
     borderopacity="1.0"
     bordercolor="#666666"
     pagecolor="#ffffff"
     id="base" />
  <metadata
     id="metadata5">
    <rdf:RDF>
      <cc:Work
         rdf:about="">
        <dc:format>image/svg+xml</dc:format>
        <dc:type
           rdf:resource="http://purl.org/dc/dcmitype/StillImage" />
        <dc:title></dc:title>
      </cc:Work>
    </rdf:RDF>
  </metadata>
  <g
     id="layer1"
     inkscape:groupmode="layer"
     inkscape:label="Layer 1">
    <path
       style="fill:#ffffff;fill-opacity:1;fill-rule:nonzero;stroke:none;stroke-width:0.137541"
       d="M 22.422918,17.771364 H 190.49185 l 18.03929,60.353438 c -0.55073,4.433238 -2.55626,8.403376 -5.51257,11.390088 -2.96672,3.002322 -6.88945,5.016011 -11.25379,5.510328 V 192.22863 H 161.1572 v -72.69052 h -32.33254 v 72.69052 H 17.585766 V 94.936762 C 13.486398,94.322767 9.8130739,92.366318 6.997031,89.514889 4.0199204,86.502164 2.0040069,82.490393 1.4688562,78.015531 L 18.832723,17.771364 Z M 182.12685,93.557878 c -1.88602,-0.832532 -3.61098,-1.97206 -5.12811,-3.350944 -0.50918,-0.463096 -0.99237,-0.957413 -1.45478,-1.472539 -0.45722,0.515126 -0.94042,1.009443 -1.45478,1.472539 -3.37198,3.069964 -7.79867,4.937962 -12.65141,4.937962 -4.85275,0 -9.27943,-1.867998 -12.65141,-4.937962 -0.51438,-0.463096 -0.99757,-0.957413 -1.45479,-1.472539 -0.46242,0.515126 -0.94561,1.009443 -1.45478,1.472539 -3.37197,3.069964 -7.80387,4.937962 -12.65141,4.937962 -4.85274,0 -9.28463,-1.867998 -12.65661,-4.937962 -0.50917,-0.463096 -0.99237,-0.957413 -1.45478,-1.472539 -0.45722,0.515126 -0.94042,1.009443 -1.45478,1.472539 -3.37198,3.069964 -7.79868,4.937962 -12.65141,4.937962 -4.85274,0 -9.279433,-1.867998 -12.651415,-4.937962 -0.509175,-0.463096 -0.997566,-0.957413 -1.454782,-1.472539 -0.457216,0.515126 -0.945607,1.009443 -1.454781,1.472539 -3.371977,3.069964 -7.803868,4.937962 -12.65141,4.937962 -4.852739,0 -9.284631,-1.867998 -12.656608,-4.937962 -0.509174,-0.463096 -0.992372,-0.957413 -1.454781,-1.472539 -0.457221,0.515126 -0.940414,1.009443 -1.449588,1.472539 -3.377175,3.069964 -7.803869,4.937962 -12.656607,4.937962 -4.85274,0 -9.279434,-1.867998 -12.651412,-4.937962 -0.509174,-0.463096 -0.997565,-0.957413 -1.454783,-1.472539 -0.457216,0.515126 -0.945608,1.009443 -1.454782,1.472539 -1.683391,1.529778 -3.626565,2.762967 -5.756782,3.611114 v 88.716782 h 91.885091 v -72.68532 h 51.69154 v 72.68532 h 11.29015 z M 23.690656,84.821486 c 1.044327,-0.416268 2.000326,-1.01985 2.826435,-1.769134 1.698978,-1.550588 2.857609,-3.72038 3.15376,-6.171146 h 9.601564 c 0.296153,2.450766 1.454783,4.620558 3.153762,6.171146 1.641825,1.493359 3.792825,2.39874 6.151651,2.39874 2.358824,0 4.51502,-0.905381 6.15165,-2.39874 1.698977,-1.550588 2.862803,-3.72038 3.153763,-6.171146 h 9.601563 c 0.296149,2.450766 1.459975,4.620558 3.158957,6.171146 1.636627,1.493359 3.792825,2.39874 6.151651,2.39874 2.358822,0 4.509822,-0.905381 6.151652,-2.39874 1.698977,-1.550588 2.857604,-3.72038 3.153758,-6.171146 h 9.601563 c 0.296154,2.450766 1.454781,4.620558 3.153758,6.171146 1.641827,1.493359 3.792827,2.39874 6.151657,2.39874 2.35882,0 4.50982,-0.905381 6.15165,-2.39874 1.69898,-1.550588 2.8576,-3.72038 3.15376,-6.171146 h 9.60156 c 0.29615,2.450766 1.45998,4.620558 3.15896,6.171146 1.63663,1.493359 3.79282,2.39874 6.15165,2.39874 2.35363,0 4.50982,-0.905381 6.14645,-2.39874 1.69898,-1.550588 2.86281,-3.72038 3.15895,-6.171146 h 9.60158 c 0.29615,2.450766 1.45478,4.620558 3.15375,6.171146 1.64183,1.493359 3.79282,2.39874 6.15166,2.39874 2.35882,0 4.50982,-0.905381 6.15165,-2.39874 1.69897,-1.550588 2.85761,-3.72038 3.15375,-6.171146 h 9.60157 c 0.29615,2.450766 1.45997,4.620558 3.15895,6.171146 0.70142,0.640013 1.49636,1.17075 2.35884,1.566204 L 198.07749,74.305552 183.39978,27.46517 H 26.013114 L 11.901724,74.367995 Z M 101.77091,158.14162 H 39.74522 v -48.29211 h 66.86284 v 48.29211 z m -52.346192,-9.69381 h 47.509036 v -28.9097 H 49.424718 Z"
       id="path1722" />
  </g>
</svg>
