<?xml version="1.0" encoding="UTF-8" standalone="no"?>
<svg
   xmlns:dc="http://purl.org/dc/elements/1.1/"
   xmlns:cc="http://creativecommons.org/ns#"
   xmlns:rdf="http://www.w3.org/1999/02/22-rdf-syntax-ns#"
   xmlns:svg="http://www.w3.org/2000/svg"
   xmlns="http://www.w3.org/2000/svg"
   xmlns:sodipodi="http://sodipodi.sourceforge.net/DTD/sodipodi-0.dtd"
   xmlns:inkscape="http://www.inkscape.org/namespaces/inkscape"
   inkscape:version="1.0 (4035a4fb49, 2020-05-01)"
   sodipodi:docname="moeda_icon.svg"
   id="svg8"
   version="1.1"
   viewBox="0 0 210 210"
   height="210mm"
   width="210mm">
  <defs
     id="defs2">
    <pattern
       id="EMFhbasepattern"
       patternUnits="userSpaceOnUse"
       width="6"
       height="6"
       x="0"
       y="0" />
    <pattern
       id="EMFhbasepattern-3"
       patternUnits="userSpaceOnUse"
       width="6"
       height="6"
       x="0"
       y="0" />
    <pattern
       id="EMFhbasepattern-7"
       patternUnits="userSpaceOnUse"
       width="6"
       height="6"
       x="0"
       y="0" />
    <pattern
       id="EMFhbasepattern-6"
       patternUnits="userSpaceOnUse"
       width="6"
       height="6"
       x="0"
       y="0" />
    <pattern
       id="EMFhbasepattern-62"
       patternUnits="userSpaceOnUse"
       width="6"
       height="6"
       x="0"
       y="0" />
    <pattern
       id="EMFhbasepattern-4"
       patternUnits="userSpaceOnUse"
       width="6"
       height="6"
       x="0"
       y="0" />
    <pattern
       id="EMFhbasepattern-45"
       patternUnits="userSpaceOnUse"
       width="6"
       height="6"
       x="0"
       y="0" />
    <pattern
       id="EMFhbasepattern-64"
       patternUnits="userSpaceOnUse"
       width="6"
       height="6"
       x="0"
       y="0" />
    <pattern
       id="EMFhbasepattern-5"
       patternUnits="userSpaceOnUse"
       width="6"
       height="6"
       x="0"
       y="0" />
    <pattern
       id="EMFhbasepattern-622"
       patternUnits="userSpaceOnUse"
       width="6"
       height="6"
       x="0"
       y="0" />
    <pattern
       id="EMFhbasepattern-74"
       patternUnits="userSpaceOnUse"
       width="6"
       height="6"
       x="0"
       y="0" />
    <pattern
       id="EMFhbasepattern-48"
       patternUnits="userSpaceOnUse"
       width="6"
       height="6"
       x="0"
       y="0" />
    <pattern
       id="EMFhbasepattern-1"
       patternUnits="userSpaceOnUse"
       width="6"
       height="6"
       x="0"
       y="0" />
    <pattern
       id="EMFhbasepattern-648"
       patternUnits="userSpaceOnUse"
       width="6"
       height="6"
       x="0"
       y="0" />
    <pattern
       id="EMFhbasepattern-18"
       patternUnits="userSpaceOnUse"
       width="6"
       height="6"
       x="0"
       y="0" />
    <pattern
       id="EMFhbasepattern-37"
       patternUnits="userSpaceOnUse"
       width="6"
       height="6"
       x="0"
       y="0" />
    <pattern
       id="EMFhbasepattern-35"
       patternUnits="userSpaceOnUse"
       width="6"
       height="6"
       x="0"
       y="0" />
    <pattern
       id="EMFhbasepattern-0"
       patternUnits="userSpaceOnUse"
       width="6"
       height="6"
       x="0"
       y="0" />
    <pattern
       id="EMFhbasepattern-77"
       patternUnits="userSpaceOnUse"
       width="6"
       height="6"
       x="0"
       y="0" />
    <pattern
       id="EMFhbasepattern-69"
       patternUnits="userSpaceOnUse"
       width="6"
       height="6"
       x="0"
       y="0" />
  </defs>
  <sodipodi:namedview
     inkscape:snap-object-midpoints="true"
     inkscape:window-maximized="1"
     inkscape:window-y="-8"
     inkscape:window-x="-8"
     inkscape:window-height="1057"
     inkscape:window-width="1920"
     showgrid="false"
     inkscape:document-rotation="0"
     inkscape:current-layer="layer1"
     inkscape:document-units="mm"
     inkscape:cy="510.1207"
     inkscape:cx="281.68563"
     inkscape:zoom="0.7"
     inkscape:pageshadow="2"
     inkscape:pageopacity="0.0"
     borderopacity="1.0"
     bordercolor="#666666"
     pagecolor="#ffffff"
     id="base" />
  <metadata
     id="metadata5">
    <rdf:RDF>
      <cc:Work
         rdf:about="">
        <dc:format>image/svg+xml</dc:format>
        <dc:type
           rdf:resource="http://purl.org/dc/dcmitype/StillImage" />
        <dc:title></dc:title>
      </cc:Work>
    </rdf:RDF>
  </metadata>
  <g
     id="layer1"
     inkscape:groupmode="layer"
     inkscape:label="Layer 1">
    <path
       style="fill:#ffffff;fill-opacity:1;fill-rule:nonzero;stroke:none;stroke-width:0.14313"
       d="m 149.91691,121.81289 c 1.72477,4.80832 1.49228,10.29891 -0.17302,14.96104 -2.93047,8.19256 -10.24044,13.71563 -18.55068,15.68119 l -0.31359,0.0704 v 13.17415 h -11.70029 v -12.9738 c -4.94721,-1.00174 -9.26183,-3.04311 -13.08983,-6.50316 -3.28733,-2.97271 -5.84474,-6.73598 -7.656014,-10.97575 l -0.540679,-1.27248 9.580823,-3.97445 c 1.04892,2.37709 1.76262,3.95279 3.2603,5.98334 3.30354,4.48885 8.06152,7.24497 13.56563,7.24497 7.87768,0 15.41475,-5.88045 15.41475,-14.07842 0,-5.99958 -4.8553,-9.42172 -10.29993,-10.82415 l -1.32467,-0.34655 v -0.005 l -10.98659,-2.89149 c -7.39108,-1.94932 -13.38721,-6.69266 -15.91218,-13.85641 -1.6761,-4.765012 -1.535525,-10.190622 0.0757,-14.787769 2.74665,-7.824356 9.65652,-12.811367 17.58828,-14.419557 l 0.32441,-0.06498 V 58.97979 h 11.70029 v 13.174159 c 4.82826,1.137106 9.10503,3.281355 12.67892,6.817208 2.96832,2.945637 5.11481,6.58437 6.39082,10.705018 l 0.37307,1.218326 -9.35374,3.671219 c -0.85969,-2.290451 -1.42199,-3.763269 -2.82776,-5.766738 -3.1846,-4.526756 -8.19128,-7.239561 -13.63051,-7.239561 -7.12074,0 -13.225,4.651298 -13.225,12.302377 0,5.431025 3.59551,9.567922 8.85091,10.932442 l 13.65214,3.55209 c 7.38568,1.906 13.55481,6.30281 16.12844,13.46656 z M 64.77082,15.878147 c 15.814855,0 30.21313,1.624435 40.70771,4.256017 9.53757,2.382503 16.28525,5.972502 18.93457,10.428865 0.0108,0 0.0271,-0.0054 0.0432,-0.0054 45.09261,0 81.65871,36.625567 81.65871,81.784831 0,45.15925 -36.5661,81.77941 -81.65871,81.77941 -29.277762,0 -54.954593,-15.44295 -69.36909,-38.62903 -11.965223,-0.51441 -22.719323,-1.96558 -31.029556,-4.05027 -12.462647,-3.11891 -20.1727257,-8.29003 -20.1727257,-14.77152 0,-2.98895 1.4652394,-5.62595 4.1902609,-7.89474 0.3406275,-0.28158 0.6974753,-0.55773 1.0813574,-0.82847 -3.3954626,-2.46914 -5.2716183,-5.34438 -5.2716183,-8.5391 0,-2.98896 1.4652394,-5.63138 4.1902609,-7.89475 0.3406275,-0.28157 0.6974753,-0.55772 1.0813574,-0.82846 -3.3954626,-2.46914 -5.2716183,-5.3498 -5.2716183,-8.54453 0,-2.988948 1.4652394,-5.625942 4.1902609,-7.894738 0.3406275,-0.281568 0.6974753,-0.55772 1.0813574,-0.828457 -3.3954626,-2.469143 -5.2716183,-5.344389 -5.2716183,-8.539109 0,-2.988957 1.4652394,-5.631371 4.1902609,-7.894747 0.3406275,-0.281573 0.6974753,-0.557725 1.0813574,-0.828463 -3.3954355,-2.474553 -5.2715913,-5.349804 -5.2715913,-8.544522 0,-2.988959 1.4652395,-5.625956 4.1902609,-7.894749 0.3406275,-0.281568 0.6974753,-0.557723 1.0813574,-0.828461 -3.3954625,-2.46914 -5.2716183,-5.344387 -5.2716183,-8.539107 0,-2.956469 1.4327988,-5.571808 4.0983454,-7.818941 -2.6493263,-2.257963 -4.0983454,-4.819154 -4.0983454,-7.62401 0,-6.48149 7.7100787,-11.652604 20.1727257,-14.771517 10.494575,-2.631582 24.898258,-4.256017 40.713109,-4.256017 z m 45.1629,15.973599 c -1.89237,-0.6227 -4.21729,-1.277887 -6.89365,-1.94932 -9.715999,-2.431236 -23.243784,-3.936544 -38.26925,-3.936544 -15.030867,0 -28.553243,1.505308 -38.274648,3.936544 -7.747926,1.938491 -12.53834,3.763272 -12.53834,5.003255 0,0.801388 2.005918,1.84644 5.52033,3.010618 h 0.497425 c 1.535527,0.579381 3.265699,1.131689 5.163482,1.640677 0.443356,0.119127 0.897526,0.232837 1.357103,0.351962 9.553794,2.387917 22.789612,3.882397 37.517701,3.936545 h 0.129762 c 0.205459,0 0.416322,0 0.627185,0 0.205459,0 0.416322,0 0.627191,0 h 0.129762 c 5.30406,-0.02166 10.413475,-0.227422 15.225515,-0.595627 8.742777,-5.555563 18.610162,-9.497523 29.180432,-11.39811 z M 67.328232,53.916972 c -0.183831,0 -0.367662,0 -0.551493,0.0054 h -0.394694 l -0.194645,0.0054 c -0.20005,0 -0.400099,0 -0.600154,0 h -0.162203 c -0.221677,0 -0.43795,0 -0.654223,0 -0.221677,0 -0.43795,0 -0.654217,0 h -0.162204 c -0.200054,0 -0.405513,0 -0.605563,0 l -0.194645,-0.0054 h -0.389284 c -0.200055,-0.0054 -0.400104,-0.0054 -0.600154,-0.0054 l -0.129767,-0.0054 C 47.301492,53.7383 33.946726,52.151768 24.057711,49.677214 c -0.984036,-0.249078 -1.93563,-0.503573 -2.860191,-0.779727 -1.005663,-0.286984 -1.968071,-0.584796 -2.881818,-0.893438 -1.66529,0.720164 -2.957513,1.445745 -3.828005,2.171326 -0.346035,0.286983 -0.529865,-0.01083 -0.529865,0.173272 0,1.239985 4.790414,3.05935 12.53834,4.997841 9.19154,2.301282 21.783949,3.774102 35.836189,3.925716 1.584187,-1.85727 3.254885,-3.644147 4.995871,-5.355217 z M 54.027536,70.935623 C 48.269307,70.659471 42.786824,70.161311 37.720663,69.479047 30.134941,68.461069 23.511625,67.015323 18.315702,65.266349 c -1.66529,0.720166 -2.957513,1.451161 -3.828005,2.171328 -0.346035,0.286982 -0.529865,-0.01083 -0.529865,0.173272 0,1.239984 4.790414,3.064767 12.53834,5.003255 6.693603,1.67317 15.182261,2.907737 24.730648,3.514192 0.875899,-1.765216 1.805868,-3.497947 2.800716,-5.192773 z m -7.45596,16.774984 C 43.505927,87.4507 40.548414,87.125812 37.720663,86.746778 30.134941,85.723384 23.511625,84.283056 18.315702,82.53408 c -1.66529,0.720166 -2.957513,1.445748 -3.828005,2.171324 -0.346035,0.286988 -0.529865,-0.01082 -0.529865,0.173277 0,1.239981 4.790414,3.059348 12.53834,4.997841 5.228364,1.310377 11.554306,2.350011 18.626385,3.032278 0.427136,-1.754391 0.90834,-3.492532 1.449019,-5.198193 z m -3.411684,16.942843 c -1.859935,-0.18952 -3.676615,-0.40611 -5.439229,-0.64435 -7.585722,-1.01798 -14.209038,-2.46373 -19.404961,-4.212702 -1.66529,0.720162 -2.957513,1.451162 -3.828005,2.171322 -0.346035,0.28699 -0.529865,-0.0108 -0.529865,0.17327 0,1.23999 4.790414,3.06477 12.53834,5.00326 4.655244,1.16418 10.186389,2.11718 16.339314,2.79403 0.04866,-1.77605 0.156796,-3.53585 0.324406,-5.28483 z m 0.200051,17.28939 c -1.930222,-0.20034 -3.811785,-0.42235 -5.63928,-0.66601 -7.585722,-1.01798 -14.209038,-2.46373 -19.404961,-4.2127 -1.66529,0.72016 -2.957513,1.44574 -3.828005,2.17132 -0.346035,0.28699 -0.529865,-0.0108 -0.529865,0.17328 0,1.23998 4.790414,3.05934 12.53834,4.99784 4.995872,1.25081 10.992,2.25796 17.674789,2.94022 -0.329813,-1.78146 -0.600152,-3.58458 -0.811018,-5.40395 z m 4.082125,17.63594 c -3.373836,-0.27074 -6.628721,-0.6227 -9.721405,-1.03964 -7.585722,-1.01798 -14.209038,-2.46372 -19.404961,-4.2127 -1.66529,0.72017 -2.957513,1.45117 -3.828005,2.17133 -0.346035,0.28699 -0.529865,-0.005 -0.529865,0.17327 0,1.23999 4.790414,3.06477 12.53834,5.00326 6.309721,1.58111 14.225259,2.76695 23.119425,3.4059 -0.789392,-1.80313 -1.5139,-3.63874 -2.173529,-5.50142 z M 175.23691,61.486834 c -28.05041,-28.091876 -73.51069,-28.091876 -101.56111,0 -28.050412,28.091875 -28.050412,73.613916 0,101.705806 28.05042,28.09728 73.5107,28.09728 101.56111,0 28.05041,-28.09189 28.05041,-73.61393 0,-101.705806 z"
       id="path1709" />
  </g>
</svg>
