<?xml version="1.0" encoding="UTF-8" standalone="no"?>
<svg
   xmlns:dc="http://purl.org/dc/elements/1.1/"
   xmlns:cc="http://creativecommons.org/ns#"
   xmlns:rdf="http://www.w3.org/1999/02/22-rdf-syntax-ns#"
   xmlns:svg="http://www.w3.org/2000/svg"
   xmlns="http://www.w3.org/2000/svg"
   xmlns:sodipodi="http://sodipodi.sourceforge.net/DTD/sodipodi-0.dtd"
   xmlns:inkscape="http://www.inkscape.org/namespaces/inkscape"
   inkscape:version="1.0 (4035a4fb49, 2020-05-01)"
   sodipodi:docname="pix_icon.svg"
   id="svg8"
   version="1.1"
   viewBox="0 0 210 210"
   height="210mm"
   width="210mm">
  <defs
     id="defs2">
    <pattern
       id="EMFhbasepattern"
       patternUnits="userSpaceOnUse"
       width="6"
       height="6"
       x="0"
       y="0" />
    <pattern
       id="EMFhbasepattern-3"
       patternUnits="userSpaceOnUse"
       width="6"
       height="6"
       x="0"
       y="0" />
  </defs>
  <sodipodi:namedview
     inkscape:snap-object-midpoints="true"
     inkscape:window-maximized="1"
     inkscape:window-y="-8"
     inkscape:window-x="-8"
     inkscape:window-height="1057"
     inkscape:window-width="1920"
     showgrid="false"
     inkscape:document-rotation="0"
     inkscape:current-layer="layer1"
     inkscape:document-units="mm"
     inkscape:cy="557.26355"
     inkscape:cx="233.1142"
     inkscape:zoom="0.7"
     inkscape:pageshadow="2"
     inkscape:pageopacity="0.0"
     borderopacity="1.0"
     bordercolor="#666666"
     pagecolor="#ffffff"
     id="base" />
  <metadata
     id="metadata5">
    <rdf:RDF>
      <cc:Work
         rdf:about="">
        <dc:format>image/svg+xml</dc:format>
        <dc:type
           rdf:resource="http://purl.org/dc/dcmitype/StillImage" />
        <dc:title></dc:title>
      </cc:Work>
    </rdf:RDF>
  </metadata>
  <g
     id="layer1"
     inkscape:groupmode="layer"
     inkscape:label="Layer 1">
    <path
       style="fill:#ffffff;fill-opacity:1;fill-rule:evenodd;stroke:none;stroke-width:0.120077"
       d="m 124.24209,13.552302 37.71646,37.767669 c -8.09668,0.567831 -15.02762,2.403064 -20.50252,7.881512 -5.91488,5.928168 -10.45537,10.607105 -18.02134,18.061612 -2.27705,2.248615 -4.11411,4.292813 -5.79695,6.168932 -4.40895,4.901526 -7.63402,8.49023 -12.63717,8.49023 -5.007699,0 -8.232762,-3.588704 -12.637174,-8.49023 C 90.676023,81.555908 88.83896,79.51171 86.561913,77.263095 79.000473,69.808588 74.459983,65.129651 68.54056,59.201483 63.0702,53.723035 56.139262,51.887802 48.042584,51.319971 L 85.75451,13.552302 c 10.586919,-10.5980239 27.9052,-10.5980239 38.48758,0 z m 45.13728,45.199456 26.92997,26.974309 c 10.58691,10.602567 10.58691,27.946443 0,38.544463 l -25.90485,25.94768 c -10.01538,0 -18.29803,-0.66324 -23.51892,-5.89184 -4.77182,-4.77887 -5.95571,-5.97359 -7.01258,-7.04112 -3.1661,-3.20258 -5.65634,-5.7192 -11.06773,-11.04774 -1.98675,-1.96243 -3.80113,-3.97938 -5.47037,-5.83732 -5.72891,-6.37789 -9.92466,-11.04321 -18.33432,-11.04321 -8.414201,0 -12.609957,4.66532 -18.338868,11.04321 -1.664695,1.85794 -3.483613,3.87489 -5.47036,5.83732 -5.40686,5.32854 -7.897097,7.84516 -11.067731,11.04774 -1.056877,1.06753 -2.24076,2.26225 -7.012583,7.04112 -5.216353,5.2286 -13.499002,5.89184 -23.514391,5.89184 L 13.687262,124.27053 c -10.5823802,-10.59802 -10.5823802,-27.941896 0,-38.544463 l 26.9345,-26.974309 c 9.557255,0.04997 17.449819,0.844935 22.489266,5.891829 4.771823,4.778877 5.955706,5.973597 7.012583,7.041121 3.170634,3.202575 5.660871,5.719208 11.067731,11.047748 1.986747,1.962426 3.805665,3.979367 5.47036,5.837315 5.728911,6.377892 9.924667,11.043206 18.338868,11.043206 8.40966,0 12.60541,-4.665314 18.33432,-11.043206 1.66924,-1.857948 3.48362,-3.874889 5.47037,-5.837315 5.41139,-5.32854 7.90163,-7.845173 11.06773,-11.047748 1.05687,-1.067524 2.24076,-2.262244 7.01258,-7.041121 5.03945,-5.046894 12.93654,-5.841861 22.4938,-5.891829 z m -6.45467,98.957282 -38.68261,38.73526 c -10.58238,10.60256 -27.900661,10.60256 -38.48758,0 L 47.076425,157.70904 c 8.509452,-0.4906 15.776052,-2.24407 21.464135,-7.94056 5.919423,-5.92817 10.459913,-10.60712 18.021353,-18.06161 2.277047,-2.24861 4.11411,-4.29282 5.801483,-6.16893 4.404412,-4.90153 7.629475,-8.49024 12.637174,-8.49024 5.00315,0 8.22822,3.58871 12.63717,8.49024 1.68284,1.87611 3.5199,3.92032 5.79695,6.16893 7.56597,7.45449 12.10646,12.13344 18.02134,18.06161 5.69263,5.69649 12.95469,7.44996 21.46867,7.94056 z M 141.3381,45.900577 116.63983,21.165799 c -3.18878,-3.193489 -7.41175,-4.792506 -11.63926,-4.792506 -4.23205,0 -8.450486,1.599017 -11.643798,4.792506 L 68.658499,45.900577 c 2.667139,1.499076 5.166453,3.36611 7.488862,5.687407 2.939296,2.948186 1.388,1.430942 5.78334,5.869119 3.578869,3.615957 7.216705,7.286424 12.151824,12.151611 1.347178,1.326455 2.467559,2.493918 3.456397,3.556903 1.324499,1.426395 2.082002,2.266787 2.803218,3.070836 1.90964,2.121423 3.56072,3.961199 4.58132,4.737995 0.14968,0.113563 -0.0408,0.177164 0.0771,0.177164 0.11793,0 -0.0726,-0.0636 0.0726,-0.177164 1.02512,-0.776796 2.67621,-2.616572 4.58131,-4.737995 0.72576,-0.804049 1.47872,-1.644441 2.80776,-3.070836 0.98884,-1.062985 2.10922,-2.230448 3.45639,-3.556903 4.93513,-4.865187 8.57296,-8.535654 12.1473,-12.151611 4.39534,-4.438177 2.84404,-2.920933 5.78787,-5.869119 2.32241,-2.321297 4.81719,-4.188331 7.48433,-5.687407 z m 47.36897,47.438989 -23.71851,-23.753567 c -2.28612,0.118111 -4.39987,0.3407 -6.28229,0.754082 -1.84613,0.4043 -3.29765,0.999384 -4.2139,1.917005 -9.4484,9.457814 -5.8922,5.864572 -6.97176,6.959353 l -0.0454,0.04542 c -3.19785,3.229832 -5.7153,5.769175 -11.14938,11.129516 -0.78472,0.772253 -1.64201,1.671698 -2.51745,2.621115 -0.50803,0.545117 -1.51954,1.671698 -2.49024,2.75285 -3.00734,3.343396 -5.69262,6.32792 -8.65914,8.7219 2.96652,2.38944 5.6518,5.37397 8.65914,8.71736 0.9707,1.08116 1.98221,2.20774 2.49024,2.75286 0.87544,0.94941 1.73273,1.84886 2.51745,2.62111 5.43408,5.36034 7.95153,7.89968 11.14938,11.12952 l 0.0454,0.0454 c 1.07956,1.09478 -2.47664,-2.49847 6.97176,6.95934 0.97976,0.98576 2.5356,1.59902 4.49513,2.00332 2.02757,0.41793 4.38627,0.62234 6.98537,0.7132 l 22.7342,-22.77235 c 3.19332,-3.19349 4.78997,-7.42271 4.78997,-11.65646 0,-4.23831 -1.59665,-8.462981 -4.78997,-11.661009 z M 78.68296,113.20461 c 3.002801,-3.34339 5.688084,-6.32792 8.6546,-8.71736 -2.966516,-2.39398 -5.651799,-5.378509 -8.6546,-8.721905 -0.970698,-1.081152 -1.982213,-2.207733 -2.490243,-2.75285 C 75.31728,92.063078 74.455449,91.163633 73.670729,90.39138 68.236653,85.031039 65.723738,82.491696 62.525887,79.261864 l -0.04534,-0.04542 c -1.084093,-1.094781 2.472098,2.498461 -6.971761,-6.959353 -0.916264,-0.917621 -2.372304,-1.512705 -4.218438,-1.917005 -1.882419,-0.413382 -3.99164,-0.635971 -6.282297,-0.754082 L 21.289547,93.339566 c -3.188778,3.198028 -4.785434,7.422704 -4.785434,11.661004 0,4.23376 1.596656,8.46298 4.785434,11.65647 l 22.73874,22.77235 c 2.594565,-0.0909 4.957798,-0.29527 6.980834,-0.7132 1.964068,-0.4043 3.515364,-1.01756 4.499667,-2.00332 9.443859,-9.45781 5.887668,-5.86456 6.971761,-6.95934 l 0.04534,-0.0454 c 3.197851,-3.22984 5.710766,-5.76918 11.144842,-11.12952 0.78472,-0.77225 1.646551,-1.6717 2.521988,-2.62111 0.50803,-0.54512 1.519545,-1.6717 2.490243,-2.75286 z m 37.95687,75.62619 25.37413,-25.40708 c -2.93023,-1.5536 -5.6518,-3.5342 -8.16019,-6.04174 -2.94383,-2.94818 -1.39253,-1.43095 -5.78787,-5.86912 -3.57433,-3.61596 -7.21217,-7.28643 -12.14729,-12.15161 -1.34718,-1.32646 -2.46756,-2.49392 -3.4564,-3.55691 -1.32903,-1.42639 -2.082,-2.26678 -2.80775,-3.07084 -1.9051,-2.12142 -3.55619,-3.96119 -4.58132,-4.73798 -0.14515,-0.11357 0.0453,-0.17717 -0.0726,-0.17717 -0.11793,0 0.0726,0.0636 -0.0771,0.17717 -1.02059,0.77679 -2.67168,2.61656 -4.58132,4.73798 -0.721212,0.80406 -1.478715,1.64445 -2.803214,3.07084 -0.988838,1.06299 -2.109219,2.23045 -3.456397,3.55691 -4.935119,4.86518 -8.572955,8.53565 -12.151824,12.15161 -4.39534,4.43817 -2.844044,2.92094 -5.78334,5.86912 -2.508387,2.50754 -5.234492,4.48814 -8.160186,6.04174 l 25.369597,25.40708 c 3.193312,3.19803 7.411754,4.79705 11.643794,4.79705 4.22751,0 8.45048,-1.59902 11.63926,-4.79705 z"
       id="path1418" />
  </g>
</svg>
